<?xml version="1.0" encoding="utf-8"?>
<!-- Generator: Adobe Illustrator 21.0.0, SVG Export Plug-In . SVG Version: 6.00 Build 0)  -->
<svg version="1.1" xmlns="http://www.w3.org/2000/svg" xmlns:xlink="http://www.w3.org/1999/xlink" x="0px" y="0px"
	 viewBox="0 0 512 512" style="enable-background:new 0 0 512 512;" xml:space="preserve">
<style type="text/css">
	.st0{fill:#FFFFFF;}
</style>
<g id="Layer_2">
</g>
<g id="Capa_1">
	<g>
		<path class="st0" d="M405.9,7.6c26.5,0,48.1,21.6,48.1,48.1v400.6c0,26.5-21.6,48.1-48.1,48.1H45.4v-16c17.7,0,32-14.4,32-32
			s-14.4-32-32-32v-8v-8V7.6H405.9z M81.2,488.3h324.7c17.7,0,32-14.4,32-32s-14.4-32-32-32H81.2c7.6,8.5,12.3,19.7,12.3,32
			C93.5,468.6,88.8,479.8,81.2,488.3z M61.4,408.2h344.5c12.3,0,23.5,4.7,32,12.3V55.7c0-17.7-14.4-32-32-32H61.4V408.2z"/>
		<rect x="141.6" y="448.3" class="st0" width="280.4" height="16"/>
		<rect x="109.5" y="448.3" class="st0" width="16" height="16"/>
		<path class="st0" d="M109.5,55.7h280.4v320.5H109.5V55.7z M125.5,360.1h248.4V71.7H125.5V360.1z"/>
		<path class="st0" d="M262,302.5c4.8,4.4,7.8,10.6,7.8,17.6c0,13.3-10.8,24-24,24s-24-10.8-24-24c0-7,3-13.2,7.8-17.6
			c-40.8-7.7-71.9-43.5-71.9-86.6s31-78.9,71.9-86.6c-4.8-4.4-7.8-10.6-7.8-17.6c0-13.3,10.8-24,24-24s24,10.8,24,24
			c0,7-3,13.2-7.8,17.6c40.8,7.7,71.9,43.5,71.9,86.6S302.8,294.8,262,302.5z M245.7,328.1c4.4,0,8-3.6,8-8c0-4.4-3.6-8-8-8
			c-4.4,0-8,3.6-8,8C237.7,324.5,241.3,328.1,245.7,328.1z M283.2,246l-0.2,0.1c-2.1,2.6-4.5,5-7.2,7.2l-0.1,0.2l9.9,2.5L283.2,246z
			 M285.7,176l-9.9,2.5l0.1,0.2c2.6,2.1,5,4.5,7.2,7.2l0.2,0.1L285.7,176z M277.7,215.9c0-17.7-14.4-32-32-32s-32,14.4-32,32
			s14.4,32,32,32S277.7,233.6,277.7,215.9z M250.9,168.1l-5.2-8.7l-5.2,8.7l0.1,0c1.7-0.2,3.4-0.3,5.2-0.3S249.2,168,250.9,168.1
			L250.9,168.1z M208.2,185.8l0.2-0.1c2.1-2.6,4.5-5,7.2-7.2l0.1-0.2l-9.9-2.5L208.2,185.8z M205.7,255.9l9.9-2.5l-0.1-0.2
			c-2.6-2.1-5-4.5-7.2-7.2l-0.2-0.1L205.7,255.9z M240.5,263.7l5.2,8.7l5.2-8.7l-0.1,0c-1.7,0.2-3.4,0.3-5.2,0.3
			S242.3,263.9,240.5,263.7L240.5,263.7z M235.9,287.3l-11.7-19.5l-22,5.5C211.8,280.6,223.4,285.6,235.9,287.3z M188.3,259.4
			l5.5-22l-19.5-11.7C176.1,238.3,181,249.8,188.3,259.4z M188.3,172.4c-7.3,9.6-12.3,21.2-14,33.7l19.5-11.7L188.3,172.4z
			 M197.9,210.8L197.9,210.8l-8.8,5.1l8.7,5.2l0-0.1c-0.2-1.7-0.3-3.4-0.3-5.1C197.6,214.2,197.7,212.5,197.9,210.8z M202.2,158.6
			l22,5.5l11.7-19.5C223.4,146.3,211.8,151.2,202.2,158.6z M245.7,103.8c-4.4,0-8,3.6-8,8s3.6,8,8,8c4.4,0,8-3.6,8-8
			S250.1,103.8,245.7,103.8z M255.5,144.6l11.7,19.5l22-5.5C279.6,151.2,268,146.3,255.5,144.6z M267.2,267.8l-11.7,19.5
			c12.6-1.7,24.1-6.7,33.7-14L267.2,267.8z M293.5,210.8c0.2,1.7,0.3,3.4,0.3,5.1c0,1.7-0.1,3.5-0.3,5.1l0,0.1l8.7-5.2L293.5,210.8
			L293.5,210.8z M303.1,172.4l-5.5,22l19.5,11.7C315.3,193.6,310.4,182.1,303.1,172.4z M297.6,237.4l5.5,22
			c7.3-9.6,12.3-21.2,14-33.7L297.6,237.4z"/>
		<rect x="141.6" y="328.1" class="st0" width="16" height="16"/>
		<rect x="173.6" y="328.1" class="st0" width="32" height="16"/>
	</g>
</g>
</svg>
