<?xml version="1.0" encoding="utf-8"?>
<!-- Generator: Adobe Illustrator 21.0.0, SVG Export Plug-In . SVG Version: 6.00 Build 0)  -->
<svg version="1.1" id="Capa_1" xmlns="http://www.w3.org/2000/svg" xmlns:xlink="http://www.w3.org/1999/xlink" x="0px" y="0px"
	 viewBox="0 0 512 512" style="enable-background:new 0 0 512 512;" xml:space="preserve">
<style type="text/css">
	.st0{fill:#5A93CD;}
</style>
<g>
	<path class="st0" d="M256,114.4c-8.7,0-17.3,1.6-25.9,4.9c-8.5,3.3-16.2,7.4-23,12.5c-6.8,5.1-12.3,10.6-16.4,16.5
		c-4.1,5.9-6.2,11.5-6.2,16.8v50.6c0,9.9,2.5,22.6,7.5,38s12.8,27.3,23.5,35.8c2.8,2.1,4.8,4.8,6.2,8.1c1.4,3.3,1.9,6.7,1.4,10.3
		c-0.6,3.4-2,6.5-4,9.3s-4.6,5-7.8,6.5l-89.7,41.9c-1.3,0.4-3,1.4-5.3,3c-2.2,1.6-3.4,4.5-3.4,8.7v20.6l285.7-0.3V378
		c0-5.5-1.3-8.9-4-10.3s-4.1-2.1-4.3-2.1l-89.1-41.8c-3.2-1.5-5.9-3.6-8-6.5c-2.1-2.8-3.4-6.1-3.8-9.7s0-7,1.4-10.3s3.5-6,6.2-8.1
		c11.1-8.4,18.9-20.4,23.5-35.9s6.9-28.1,6.9-37.8V165c0-5.5-2.1-11.2-6.4-17.1c-4.3-5.9-9.7-11.3-16.4-16.3
		c-6.7-5-14.4-9.1-23-12.3C273,116,264.5,114.4,256,114.4L256,114.4z M256,94.1c11.3,0,22.4,2.1,33.4,6.3c11,4.2,20.7,9.7,29.4,16.5
		c8.6,6.8,15.6,14.3,21.1,22.8c5.4,8.4,8.1,16.9,8.1,25.3v50.6c0,6.1-0.6,13.2-1.9,21.2s-3.4,16.2-6.4,24.5
		c-3,8.3-6.9,16.4-11.8,24.1c-4.9,7.7-10.9,14.3-17.9,19.8l89.1,42.1c13.4,7.4,20.1,14,20.1,19.9v30.7c0,5.5-2,10.2-5.9,14.1
		s-8.7,5.9-14.2,5.9h-286c-5.7,0-10.6-2-14.5-5.9c-3.9-3.9-5.9-8.6-5.9-14.1v-30.7c0-5.5,6.8-12.1,20.4-19.9l89.7-42.1
		c-7.2-5.7-13.3-12.5-18.2-20.6c-4.9-8-8.9-16.2-12-24.5c-3.1-8.3-5.3-16.5-6.5-24.4c-1.3-7.9-1.9-14.6-1.9-20.1V165
		c0-8.4,2.7-16.9,8-25.3c5.3-8.4,12.3-16,20.9-22.8c8.6-6.7,18.5-12.2,29.5-16.5C233.5,96.2,244.7,94.1,256,94.1L256,94.1L256,94.1
		L256,94.1L256,94.1z"/>
</g>
</svg>
